<svg xmlns="http://www.w3.org/2000/svg" version="1.1" xmlns:xlink="http://www.w3.org/1999/xlink" xmlns:svgjs="http://svgjs.dev/svgjs" width="2000" height="590" viewBox="0 0 2000 590"><g transform="matrix(1,0,0,1,-1.2106200271854277,1.2204982212633695)"><svg viewBox="0 0 396 117" data-background-color="#000000" preserveAspectRatio="xMidYMid meet" height="590" width="2000" xmlns="http://www.w3.org/2000/svg" xmlns:xlink="http://www.w3.org/1999/xlink"><g id="tight-bounds" transform="matrix(1,0,0,1,0.2399599999999964,-0.24203100319968485)"><svg viewBox="0 0 395.52 117.48406200639937" height="117.48406200639937" width="395.52"><rect width="395.52033723461733" height="117.48406200639937" fill="url(#743d8597-ecc7-4a56-8823-dec6b5cf6b6a)" mask="url(#f99ab7ea-d8cc-45b7-9f5e-00e53fb2f89e)" data-fill-palette-color="tertiary"></rect><g><svg viewBox="0 0 395.52 117.48406200639937" height="117.48406200639937" width="395.52"><g><svg viewBox="0 0 395.52 117.48406200639937" height="117.48406200639937" width="395.52"><g id="textblocktransform"><svg viewBox="0 0 395.52 117.48406200639937" height="117.48406200639937" width="395.52" id="textblock"><g><svg viewBox="0 0 395.52 117.48406200639937" height="117.48406200639937" width="395.52"><path d="M394.594 25.198C392.735 13.003 387.435 9.613 387.435 9.613 371.165-2.948 350.86-0.24 332.619 1.565 300.414 1.638 268.339 4.321 236.208 5.76 168.767 5.979 100.749 2.369 33.643 11.272 27.339 14.003-6.54 11.808 1.121 26.759 3.129 32.978 10.456 39.881 10.232 45.588 11.236 46.588 12.631 44.295 13.226 45.734 15.309 49.612 18.711 47.783 21.501 50.075 17.614 56.197 20.403 61.295 23.062 66.636 18.377 68.026 12.371 67.368 9.675 71.977 9.396 75.319 7.89 74.685 6.235 74.538 5.026 74.441 2.59 74.807 2.999 75.855 4.394 79.441-1.594 81.514 2.162 85.026-0.422 88.831 3.948 92.123 3.353 96.245 3.278 97.074 3.687 97.782 4.338 97.977 7.22 99.025 3.018 101.074 3.464 103.294 33.029 118.464 65.104 107.976 95.394 114.952 103.259 110.074 97.346 116.684 100.489 115.659 102.943 114.464 104.728 119.415 107.499 116.61 107.927 115.805 107.276 113.903 108.8 114.269 109.6 114.464 110.307 114.415 110.418 113.293 110.586 111.61 109.117 112.659 108.726 111.781 112.947 107.342 111.906 117.903 115.866 117.464 115.68 116.171 114.528 114.318 116.889 114.562 119.232 112.708 119.306 111.171 121.389 115.342 121.463 116.244 121.835 116.879 122.43 117.318 128.938 112.781 135.409 118.927 142.233 116.879 146.417 114.635 150.433 118.098 154.672 117.244 156.16 116.562 157.666 115.342 159.098 117.391 176.632 117.83 195.319 116.001 211.943 117.464 256.364 114.732 303.836 118.586 350.674 114.976 361.719 113.586 373.192 111.61 383.958 110.025 383.958 110.025 392.679 105.684 392.679 86.172S394.538 69.099 394.817 53.563C395.096 38.027 396.398 37.393 394.538 25.198Z" opacity="1" fill="url(#743d8597-ecc7-4a56-8823-dec6b5cf6b6a)" data-fill-palette-color="tertiary"></path><g transform="matrix(1,0,0,1,55.76832,26.230666666666668)"><svg width="283.98335999999995" viewBox="2.7 -31.05 177.09 40.55" height="65.02272867306604" data-palette-color="#000000"><path d="M28.5-14.35L28.5-14.35 28.5-3.5Q28.5-2.6 27.98-1.98 27.45-1.35 26.4-0.85L26.4-0.85Q25.15-0.2 22.95 0.23 20.75 0.65 18.5 0.65L18.5 0.65Q13.85 0.65 10.28-1.05 6.7-2.75 4.7-6.25 2.7-9.75 2.7-15.15L2.7-15.15Q2.7-20.5 4.78-24.03 6.85-27.55 10.3-29.3 13.75-31.05 17.85-31.05L17.85-31.05Q20.7-31.05 22.85-30.45 25-29.85 26.2-28.95 27.4-28.05 27.4-27.1L27.4-27.1Q27.4-26.45 27-25.93 26.6-25.4 26.05-25.15L26.05-25.15Q24.7-26.05 22.85-26.83 21-27.6 18.1-27.6L18.1-27.6Q14.95-27.6 12.4-26.2 9.85-24.8 8.38-22.03 6.9-19.25 6.9-15.15L6.9-15.15Q6.9-10.85 8.43-8.13 9.95-5.4 12.6-4.1 15.25-2.8 18.55-2.8L18.55-2.8Q20.35-2.8 21.95-3.1 23.55-3.4 24.45-3.85L24.45-3.85 24.45-13.05 16.9-13.05Q16.75-13.3 16.6-13.73 16.45-14.15 16.45-14.65L16.45-14.65Q16.45-15.5 16.85-15.98 17.25-16.45 18-16.45L18-16.45 26.35-16.45Q27.25-16.45 27.88-15.88 28.5-15.3 28.5-14.35ZM39.7-18.8L39.7-18.8 39.7-10.9 35.7-10.9 35.7-18.5Q35.7-19.65 36.12-20.33 36.55-21 37.55-21.65L37.55-21.65Q38.85-22.5 41.1-23.13 43.35-23.75 46.1-23.75L46.1-23.75Q50.1-23.75 50.1-21.75L50.1-21.75Q50.1-21.25 49.95-20.83 49.8-20.4 49.55-20.1L49.55-20.1Q49.05-20.2 48.25-20.3 47.45-20.4 46.65-20.4L46.65-20.4Q44.35-20.4 42.6-19.93 40.85-19.45 39.7-18.8ZM35.7-1.55L35.7-13.2 39.7-12.6 39.7-0.1Q39.45 0 38.95 0.13 38.45 0.25 37.85 0.25L37.85 0.25Q36.8 0.25 36.25-0.18 35.7-0.6 35.7-1.55L35.7-1.55ZM76.25-11.55L76.25-11.55Q76.25-7.85 74.84-5.1 73.45-2.35 70.9-0.85 68.34 0.65 64.9 0.65L64.9 0.65Q61.45 0.65 58.87-0.85 56.3-2.35 54.9-5.1 53.5-7.85 53.5-11.55L53.5-11.55Q53.5-15.3 54.92-18.03 56.34-20.75 58.92-22.25 61.5-23.75 64.9-23.75L64.9-23.75Q68.3-23.75 70.84-22.25 73.4-20.75 74.82-18.03 76.25-15.3 76.25-11.55ZM64.9-20.45L64.9-20.45Q61.55-20.45 59.57-18.07 57.59-15.7 57.59-11.55L57.59-11.55Q57.59-7.35 59.52-5 61.45-2.65 64.9-2.65L64.9-2.65Q68.3-2.65 70.22-5.03 72.15-7.4 72.15-11.55L72.15-11.55Q72.15-15.7 70.22-18.07 68.3-20.45 64.9-20.45ZM103.89-11.55L103.89-11.55Q103.89-7.85 102.49-5.1 101.09-2.35 98.54-0.85 95.99 0.65 92.54 0.65L92.54 0.65Q89.09 0.65 86.52-0.85 83.94-2.35 82.54-5.1 81.14-7.85 81.14-11.55L81.14-11.55Q81.14-15.3 82.57-18.03 83.99-20.75 86.57-22.25 89.14-23.75 92.54-23.75L92.54-23.75Q95.94-23.75 98.49-22.25 101.04-20.75 102.47-18.03 103.89-15.3 103.89-11.55ZM92.54-20.45L92.54-20.45Q89.19-20.45 87.22-18.07 85.24-15.7 85.24-11.55L85.24-11.55Q85.24-7.35 87.17-5 89.09-2.65 92.54-2.65L92.54-2.65Q95.94-2.65 97.87-5.03 99.79-7.4 99.79-11.55L99.79-11.55Q99.79-15.7 97.87-18.07 95.94-20.45 92.54-20.45ZM127.39-23.55L127.39-23.55Q128.24-23.55 128.77-23.1 129.29-22.65 129.29-21.8L129.29-21.8Q129.29-21.15 128.74-19.35 128.19-17.55 127.29-15.05 126.39-12.55 125.32-9.83 124.24-7.1 123.12-4.58 121.99-2.05 121.04-0.2L121.04-0.2Q120.79 0 120.17 0.15 119.54 0.3 118.84 0.3L118.84 0.3Q117.99 0.3 117.34 0.03 116.69-0.25 116.44-0.75L116.44-0.75Q115.89-1.75 115.02-3.68 114.14-5.6 113.14-8.05 112.14-10.5 111.12-13.13 110.09-15.75 109.24-18.18 108.39-20.6 107.84-22.45L107.84-22.45Q108.19-22.95 108.79-23.25 109.39-23.55 109.99-23.55L109.99-23.55Q110.89-23.55 111.39-23.1 111.89-22.65 112.24-21.6L112.24-21.6 115.34-12.65Q115.74-11.5 116.39-9.8 117.04-8.1 117.69-6.4 118.34-4.7 118.74-3.55L118.74-3.55 118.94-3.55Q120.94-8.6 122.69-13.53 124.44-18.45 125.69-23.15L125.69-23.15Q126.34-23.55 127.39-23.55ZM153.09-11.35L136.29-9 136.09-12.15 151.19-14.2Q150.99-16.95 149.29-18.73 147.59-20.5 144.59-20.5L144.59-20.5Q141.49-20.5 139.46-18.28 137.44-16.05 137.44-11.9L137.44-11.9 137.44-10.8Q137.79-6.8 140.06-4.73 142.34-2.65 146.29-2.65L146.29-2.65Q148.39-2.65 150.09-3.35 151.79-4.05 152.79-4.85L152.79-4.85Q153.34-4.5 153.66-4.03 153.99-3.55 153.99-2.95L153.99-2.95Q153.99-2 152.91-1.18 151.84-0.35 150.06 0.15 148.29 0.65 146.09 0.65L146.09 0.65Q142.24 0.65 139.41-0.75 136.59-2.15 135.06-4.93 133.54-7.7 133.54-11.7L133.54-11.7Q133.54-14.55 134.36-16.78 135.19-19 136.66-20.55 138.14-22.1 140.19-22.93 142.24-23.75 144.64-23.75L144.64-23.75Q147.69-23.75 150.01-22.45 152.34-21.15 153.66-18.82 154.99-16.5 154.99-13.5L154.99-13.5Q154.99-12.4 154.49-11.93 153.99-11.45 153.09-11.35L153.09-11.35ZM165.49-5.15L165.49-5.15Q164.64-6.75 163.44-9.47 162.24-12.2 160.96-15.58 159.69-18.95 158.54-22.45L158.54-22.45Q158.89-22.95 159.46-23.25 160.04-23.55 160.69-23.55L160.69-23.55Q161.54-23.55 162.09-23.1 162.64-22.65 162.99-21.6L162.99-21.6Q164.49-17.4 166.14-13.25 167.79-9.1 169.79-4.65L169.79-4.65 169.99-4.65Q171.04-6.75 172.19-9.9 173.34-13.05 174.39-16.55 175.44-20.05 176.14-23.15L176.14-23.15Q176.49-23.3 176.91-23.43 177.34-23.55 177.84-23.55L177.84-23.55Q178.69-23.55 179.24-23.13 179.79-22.7 179.79-21.85L179.79-21.85Q179.79-21.05 179.34-19.18 178.89-17.3 178.11-14.83 177.34-12.35 176.31-9.58 175.29-6.8 174.11-4.13 172.94-1.45 171.74 0.7L171.74 0.7Q169.44 4.95 167.54 7.23 165.64 9.5 164.04 9.5L164.04 9.5Q162.89 9.5 162.26 8.9 161.64 8.3 161.49 7.5L161.49 7.5Q162.59 6.55 163.96 4.98 165.34 3.4 166.61 1.58 167.89-0.25 168.69-1.9L168.69-1.9Q167.84-2.15 167.11-2.8 166.39-3.45 165.49-5.15Z" opacity="1" transform="matrix(1,0,0,1,0,0)" fill="#000000" class="wordmark-text-0" data-fill-palette-color="quaternary" id="text-0"></path></svg></g></svg></g></svg></g></svg></g><g></g></svg></g><defs></defs><mask id="f99ab7ea-d8cc-45b7-9f5e-00e53fb2f89e"><g id="SvgjsG1585"><svg viewBox="0 0 395.52 117.48406200639937" height="117.48406200639937" width="395.52"><g><svg viewBox="0 0 395.52 117.48406200639937" height="117.48406200639937" width="395.52"><g><svg viewBox="0 0 395.52 117.48406200639937" height="117.48406200639937" width="395.52"><g id="SvgjsG1584"><svg viewBox="0 0 395.52 117.48406200639937" height="117.48406200639937" width="395.52" id="SvgjsSvg1583"><g><svg viewBox="0 0 395.52 117.48406200639937" height="117.48406200639937" width="395.52"><path d="M394.594 25.198C392.735 13.003 387.435 9.613 387.435 9.613 371.165-2.948 350.86-0.24 332.619 1.565 300.414 1.638 268.339 4.321 236.208 5.76 168.767 5.979 100.749 2.369 33.643 11.272 27.339 14.003-6.54 11.808 1.121 26.759 3.129 32.978 10.456 39.881 10.232 45.588 11.236 46.588 12.631 44.295 13.226 45.734 15.309 49.612 18.711 47.783 21.501 50.075 17.614 56.197 20.403 61.295 23.062 66.636 18.377 68.026 12.371 67.368 9.675 71.977 9.396 75.319 7.89 74.685 6.235 74.538 5.026 74.441 2.59 74.807 2.999 75.855 4.394 79.441-1.594 81.514 2.162 85.026-0.422 88.831 3.948 92.123 3.353 96.245 3.278 97.074 3.687 97.782 4.338 97.977 7.22 99.025 3.018 101.074 3.464 103.294 33.029 118.464 65.104 107.976 95.394 114.952 103.259 110.074 97.346 116.684 100.489 115.659 102.943 114.464 104.728 119.415 107.499 116.61 107.927 115.805 107.276 113.903 108.8 114.269 109.6 114.464 110.307 114.415 110.418 113.293 110.586 111.61 109.117 112.659 108.726 111.781 112.947 107.342 111.906 117.903 115.866 117.464 115.68 116.171 114.528 114.318 116.889 114.562 119.232 112.708 119.306 111.171 121.389 115.342 121.463 116.244 121.835 116.879 122.43 117.318 128.938 112.781 135.409 118.927 142.233 116.879 146.417 114.635 150.433 118.098 154.672 117.244 156.16 116.562 157.666 115.342 159.098 117.391 176.632 117.83 195.319 116.001 211.943 117.464 256.364 114.732 303.836 118.586 350.674 114.976 361.719 113.586 373.192 111.61 383.958 110.025 383.958 110.025 392.679 105.684 392.679 86.172S394.538 69.099 394.817 53.563C395.096 38.027 396.398 37.393 394.538 25.198Z" opacity="1" fill="white"></path><g transform="matrix(1,0,0,1,55.76832,26.230666666666668)"><svg width="283.98335999999995" viewBox="2.7 -31.05 177.09 40.55" height="65.02272867306604" data-palette-color="#000000"><path d="M28.5-14.35L28.5-14.35 28.5-3.5Q28.5-2.6 27.98-1.98 27.45-1.35 26.4-0.85L26.4-0.85Q25.15-0.2 22.95 0.23 20.75 0.65 18.5 0.65L18.5 0.65Q13.85 0.65 10.28-1.05 6.7-2.75 4.7-6.25 2.7-9.75 2.7-15.15L2.7-15.15Q2.7-20.5 4.78-24.03 6.85-27.55 10.3-29.3 13.75-31.05 17.85-31.05L17.85-31.05Q20.7-31.05 22.85-30.45 25-29.85 26.2-28.95 27.4-28.05 27.4-27.1L27.4-27.1Q27.4-26.45 27-25.93 26.6-25.4 26.05-25.15L26.05-25.15Q24.7-26.05 22.85-26.83 21-27.6 18.1-27.6L18.1-27.6Q14.95-27.6 12.4-26.2 9.85-24.8 8.38-22.03 6.9-19.25 6.9-15.15L6.9-15.15Q6.9-10.85 8.43-8.13 9.95-5.4 12.6-4.1 15.25-2.8 18.55-2.8L18.55-2.8Q20.35-2.8 21.95-3.1 23.55-3.4 24.45-3.85L24.45-3.85 24.45-13.05 16.9-13.05Q16.75-13.3 16.6-13.73 16.45-14.15 16.45-14.65L16.45-14.65Q16.45-15.5 16.85-15.98 17.25-16.45 18-16.45L18-16.45 26.35-16.45Q27.25-16.45 27.88-15.88 28.5-15.3 28.5-14.35ZM39.7-18.8L39.7-18.8 39.7-10.9 35.7-10.9 35.7-18.5Q35.7-19.65 36.12-20.33 36.55-21 37.55-21.65L37.55-21.65Q38.85-22.5 41.1-23.13 43.35-23.75 46.1-23.75L46.1-23.75Q50.1-23.75 50.1-21.75L50.1-21.75Q50.1-21.25 49.95-20.83 49.8-20.4 49.55-20.1L49.55-20.1Q49.05-20.2 48.25-20.3 47.45-20.4 46.65-20.4L46.65-20.4Q44.35-20.4 42.6-19.93 40.85-19.45 39.7-18.8ZM35.7-1.55L35.7-13.2 39.7-12.6 39.7-0.1Q39.45 0 38.95 0.13 38.45 0.25 37.85 0.25L37.85 0.25Q36.8 0.25 36.25-0.18 35.7-0.6 35.7-1.55L35.7-1.55ZM76.25-11.55L76.25-11.55Q76.25-7.85 74.84-5.1 73.45-2.35 70.9-0.85 68.34 0.65 64.9 0.65L64.9 0.65Q61.45 0.65 58.87-0.85 56.3-2.35 54.9-5.1 53.5-7.85 53.5-11.55L53.5-11.55Q53.5-15.3 54.92-18.03 56.34-20.75 58.92-22.25 61.5-23.75 64.9-23.75L64.9-23.75Q68.3-23.75 70.84-22.25 73.4-20.75 74.82-18.03 76.25-15.3 76.25-11.55ZM64.9-20.45L64.9-20.45Q61.55-20.45 59.57-18.07 57.59-15.7 57.59-11.55L57.59-11.55Q57.59-7.35 59.52-5 61.45-2.65 64.9-2.65L64.9-2.65Q68.3-2.65 70.22-5.03 72.15-7.4 72.15-11.55L72.15-11.55Q72.15-15.7 70.22-18.07 68.3-20.45 64.9-20.45ZM103.89-11.55L103.89-11.55Q103.89-7.85 102.49-5.1 101.09-2.35 98.54-0.85 95.99 0.65 92.54 0.65L92.54 0.65Q89.09 0.65 86.52-0.85 83.94-2.35 82.54-5.1 81.14-7.85 81.14-11.55L81.14-11.55Q81.14-15.3 82.57-18.03 83.99-20.75 86.57-22.25 89.14-23.75 92.54-23.75L92.54-23.75Q95.94-23.75 98.49-22.25 101.04-20.75 102.47-18.03 103.89-15.3 103.89-11.55ZM92.54-20.45L92.54-20.45Q89.19-20.45 87.22-18.07 85.24-15.7 85.24-11.55L85.24-11.55Q85.24-7.35 87.17-5 89.09-2.65 92.54-2.65L92.54-2.65Q95.94-2.65 97.87-5.03 99.79-7.4 99.79-11.55L99.79-11.55Q99.79-15.7 97.87-18.07 95.94-20.45 92.54-20.45ZM127.39-23.55L127.39-23.55Q128.24-23.55 128.77-23.1 129.29-22.65 129.29-21.8L129.29-21.8Q129.29-21.15 128.74-19.35 128.19-17.55 127.29-15.05 126.39-12.55 125.32-9.83 124.24-7.1 123.12-4.58 121.99-2.05 121.04-0.2L121.04-0.2Q120.79 0 120.17 0.15 119.54 0.3 118.84 0.3L118.84 0.3Q117.99 0.3 117.34 0.03 116.69-0.25 116.44-0.75L116.44-0.75Q115.89-1.75 115.02-3.68 114.14-5.6 113.14-8.05 112.14-10.5 111.12-13.13 110.09-15.75 109.24-18.18 108.39-20.6 107.84-22.45L107.84-22.45Q108.19-22.95 108.79-23.25 109.39-23.55 109.99-23.55L109.99-23.55Q110.89-23.55 111.39-23.1 111.89-22.65 112.24-21.6L112.24-21.6 115.34-12.65Q115.74-11.5 116.39-9.8 117.04-8.1 117.69-6.4 118.34-4.7 118.74-3.55L118.74-3.55 118.94-3.55Q120.94-8.6 122.69-13.53 124.44-18.45 125.69-23.15L125.69-23.15Q126.34-23.55 127.39-23.55ZM153.09-11.35L136.29-9 136.09-12.15 151.19-14.2Q150.99-16.95 149.29-18.73 147.59-20.5 144.59-20.5L144.59-20.5Q141.49-20.5 139.46-18.28 137.44-16.05 137.44-11.9L137.44-11.9 137.44-10.8Q137.79-6.8 140.06-4.73 142.34-2.65 146.29-2.65L146.29-2.65Q148.39-2.65 150.09-3.35 151.79-4.05 152.79-4.85L152.79-4.85Q153.34-4.5 153.66-4.03 153.99-3.55 153.99-2.95L153.99-2.95Q153.99-2 152.91-1.18 151.84-0.35 150.06 0.15 148.29 0.65 146.09 0.65L146.09 0.65Q142.24 0.65 139.41-0.75 136.59-2.15 135.06-4.93 133.54-7.7 133.54-11.7L133.54-11.7Q133.54-14.55 134.36-16.78 135.19-19 136.66-20.55 138.14-22.1 140.19-22.93 142.24-23.75 144.64-23.75L144.64-23.75Q147.69-23.75 150.01-22.45 152.34-21.15 153.66-18.82 154.99-16.5 154.99-13.5L154.99-13.5Q154.99-12.4 154.49-11.93 153.99-11.45 153.09-11.35L153.09-11.35ZM165.49-5.15L165.49-5.15Q164.64-6.75 163.44-9.47 162.24-12.2 160.96-15.58 159.69-18.95 158.54-22.45L158.54-22.45Q158.89-22.95 159.46-23.25 160.04-23.55 160.69-23.55L160.69-23.55Q161.54-23.55 162.09-23.1 162.64-22.65 162.99-21.6L162.99-21.6Q164.49-17.4 166.14-13.25 167.79-9.1 169.79-4.65L169.79-4.65 169.99-4.65Q171.04-6.75 172.19-9.9 173.34-13.05 174.39-16.55 175.44-20.05 176.14-23.15L176.14-23.15Q176.49-23.3 176.91-23.43 177.34-23.55 177.84-23.55L177.84-23.55Q178.69-23.55 179.24-23.13 179.79-22.7 179.79-21.85L179.79-21.85Q179.79-21.05 179.34-19.18 178.89-17.3 178.11-14.83 177.34-12.35 176.31-9.58 175.29-6.8 174.11-4.13 172.94-1.45 171.74 0.7L171.74 0.7Q169.44 4.95 167.54 7.23 165.64 9.5 164.04 9.5L164.04 9.5Q162.89 9.5 162.26 8.9 161.64 8.3 161.49 7.5L161.49 7.5Q162.59 6.55 163.96 4.98 165.34 3.4 166.61 1.58 167.89-0.25 168.69-1.9L168.69-1.9Q167.84-2.15 167.11-2.8 166.39-3.45 165.49-5.15Z" opacity="1" transform="matrix(1,0,0,1,0,0)" fill="black" class="wordmark-text-0" id="SvgjsPath1582"></path></svg></g></svg></g></svg></g></svg></g><g></g></svg></g><defs><mask></mask></defs></svg><rect width="395.52" height="117.48406200639937" fill="black" stroke="none" visibility="hidden"></rect></g></mask><linearGradient x1="0" x2="1" y1="0.578" y2="0.595" id="743d8597-ecc7-4a56-8823-dec6b5cf6b6a"><stop stop-color="#dede50" offset="0"></stop><stop stop-color="#559c49" offset="1"></stop></linearGradient></svg><rect width="395.52" height="117.48406200639937" fill="none" stroke="none" visibility="hidden"></rect></g></svg></g></svg>